# xmcd
#
# Track frame offsets: 
#        150
#        24304
#        47446
#        63536
#        83337
#        108333
#        133510
#        163643
#        180678
#        197732
#        219282
#        238537
#        251942
#        268653
#
# Disc length: 3941 seconds
#
# Revision: 4
# Processed by: cddbd v1.5.1PL0 Copyright (c) Steve Scherf et al.
# Submitted via: ExactAudioCopy v0.95a4
#
DISCID=b80f630e
DTITLE=Memphis La Blusera - En vivo en el Colon
DYEAR=2003
DGENRE=Blues
TTITLE0=La flor mas bella
TTITLE1=Decime cuando
TTITLE2=Estepario
TTITLE3=Angelitos culones
TTITLE4=La sirenita y el lobo de mar
TTITLE5=Monton de nada
TTITLE6=Tonto rompecabezas
TTITLE7=Hechicero de la jungla
TTITLE8=Quiero vivir en un lugar
TTITLE9=Traigo gasolina
TTITLE10=Moscato pizza y faina
TTITLE11=Cuentan las monedas
TTITLE12=Irresponsable
TTITLE13=La bifurcada
EXTD=
EXTT0=
EXTT1=
EXTT2=
EXTT3=
EXTT4=
EXTT5=
EXTT6=
EXTT7=
EXTT8=
EXTT9=
EXTT10=
EXTT11=
EXTT12=
EXTT13=
PLAYORDER=
